<?xml version="1.0" standalone="no"?>
<!DOCTYPE svg PUBLIC "-//W3C//DTD SVG 20010904//EN"
 "http://www.w3.org/TR/2001/REC-SVG-20010904/DTD/svg10.dtd">
<svg version="1.0" xmlns="http://www.w3.org/2000/svg"
 width="500.000000pt" height="500.000000pt" viewBox="0 0 500.000000 500.000000"
 preserveAspectRatio="xMidYMid meet">

<g transform="translate(0.000000,500.000000) scale(0.100000,-0.100000)"
fill="#000000" stroke="none">
<path d="M2241 4220 c-177 -25 -375 -90 -551 -181 -462 -240 -785 -667 -902
-1194 -19 -88 -22 -129 -22 -345 -1 -234 1 -250 28 -364 90 -383 269 -688 546
-934 222 -196 500 -336 806 -404 87 -19 128 -22 344 -22 216 0 257 3 344 22
615 137 1092 555 1294 1133 64 181 85 305 90 524 3 173 1 217 -18 330 -119
703 -632 1245 -1338 1412 -94 22 -134 25 -332 28 -124 2 -254 0 -289 -5z m584
-99 c454 -99 830 -365 1077 -764 232 -372 300 -852 184 -1286 -77 -287 -212
-518 -430 -737 -323 -322 -712 -484 -1166 -484 -454 0 -844 162 -1165 484
-325 325 -485 711 -485 1166 0 444 157 833 464 1149 254 261 543 414 911 482
142 26 466 21 610 -10z"/>
<path d="M2420 3860 l0 -130 75 0 c73 0 75 1 75 25 0 23 -4 25 -45 25 -43 0
-45 1 -45 30 0 28 2 30 40 30 36 0 40 3 40 25 0 23 -4 25 -40 25 -36 0 -40 3
-40 25 0 23 4 25 45 25 41 0 45 2 45 25 0 24 -2 25 -75 25 l-75 0 0 -130z"/>
<path d="M2178 3963 c-33 -5 -34 -16 -13 -134 24 -132 23 -129 49 -129 32 0
34 5 25 53 -4 23 -5 44 -3 46 2 3 24 -14 48 -38 40 -39 46 -42 81 -35 l38 7
-52 45 c-50 43 -51 45 -34 64 22 25 22 82 -2 108 -18 20 -62 24 -137 13z m90
-70 c2 -14 -4 -26 -18 -33 -26 -14 -25 -14 -33 28 -6 32 -5 33 21 30 19 -2 28
-9 30 -25z"/>
<path d="M2757 3963 c-13 -23 -57 -237 -50 -243 4 -5 36 -14 70 -21 53 -11 64
-11 86 4 35 22 43 64 20 96 -18 25 -18 27 -1 44 23 22 23 69 1 89 -28 25 -117
46 -126 31z m81 -81 c3 -18 -1 -22 -21 -22 -21 0 -23 4 -19 25 6 32 36 30 40
-3z m-24 -85 c22 -16 17 -50 -8 -55 -26 -5 -40 12 -32 42 7 29 14 32 40 13z"/>
<path d="M2027 3923 c-10 -3 -17 -10 -14 -16 54 -147 61 -175 48 -191 -19 -23
-56 -20 -69 7 -7 12 -23 51 -36 87 -25 67 -40 80 -68 58 -15 -12 -13 -22 22
-108 43 -104 57 -120 107 -120 65 0 113 40 113 93 0 36 -61 197 -74 196 -6 -1
-19 -3 -29 -6z"/>
<path d="M2987 3863 c-8 -21 -31 -75 -50 -120 l-36 -82 70 -27 c38 -15 71 -25
73 -23 2 2 6 13 10 25 5 17 0 23 -34 34 -28 9 -39 18 -35 28 3 7 5 18 5 23 0
13 27 11 59 -6 27 -13 29 -13 40 11 11 24 9 26 -29 41 -44 18 -46 21 -27 47
12 16 15 16 51 1 41 -17 59 -9 53 23 -2 12 -106 62 -128 62 -4 0 -14 -17 -22
-37z"/>
<path d="M3182 3795 c-6 -14 -8 -25 -4 -25 4 0 15 -7 26 -15 17 -13 16 -18
-34 -100 -42 -70 -50 -88 -40 -100 23 -28 39 -15 91 70 29 47 55 85 58 85 3 0
15 -7 25 -15 21 -16 46 -5 46 20 0 9 -140 105 -154 105 -1 0 -8 -11 -14 -25z"/>
<path d="M1742 3795 c-41 -18 -64 -66 -50 -106 11 -33 56 -53 100 -45 72 13
76 -40 4 -57 -29 -7 -36 -14 -36 -33 0 -20 5 -24 30 -24 91 0 156 94 105 150
-14 16 -31 20 -81 20 -35 0 -66 5 -69 10 -9 15 12 38 38 42 16 2 23 11 25 31
4 32 -13 35 -66 12z"/>
<path d="M2285 3540 c-400 -79 -715 -377 -822 -778 -24 -86 -27 -116 -27 -262
0 -147 3 -176 27 -265 100 -374 388 -661 762 -762 89 -24 117 -27 265 -27 148
0 176 3 265 27 375 101 661 388 762 765 24 86 27 116 27 262 0 146 -3 176 -27
262 -128 478 -549 802 -1036 797 -58 -1 -146 -9 -196 -19z m155 -184 l0 -123
-60 -7 c-102 -12 -227 -63 -323 -134 l-49 -35 -84 84 c-46 46 -84 86 -84 89 0
10 120 94 181 129 77 43 206 89 297 105 134 25 122 35 122 -108z m832 -269
c59 -79 120 -194 146 -277 20 -61 52 -215 52 -246 0 -11 -25 -14 -125 -14
l-125 0 0 33 c0 83 -65 250 -137 351 l-35 49 83 83 c46 46 86 84 89 84 3 0 26
-29 52 -63z m-658 38 c236 -50 421 -223 492 -461 25 -81 25 -247 0 -328 -67
-224 -229 -386 -452 -452 -80 -23 -248 -23 -328 0 -211 62 -377 220 -443 421
-22 67 -26 99 -27 195 0 100 3 125 27 194 46 132 106 218 212 303 148 118 341
166 519 128z m-854 -708 c0 -83 66 -252 136 -350 l36 -50 -86 -86 -86 -86 -29
35 c-43 51 -119 179 -146 246 -28 69 -61 197 -70 272 l-7 52 126 0 126 0 0
-33z m1299 -561 l85 -85 -25 -21 c-134 -114 -338 -202 -521 -224 l-58 -7 0
125 0 126 27 0 c81 0 276 75 358 138 22 17 42 31 45 31 3 1 43 -37 89 -83z"/>
<path d="M2395 2924 c-76 -28 -144 -118 -145 -191 0 -22 -6 -33 -19 -38 -48
-15 -103 -68 -128 -122 -21 -46 -25 -65 -20 -114 6 -73 40 -134 94 -172 33
-24 55 -31 112 -35 39 -2 71 -8 71 -12 0 -4 -11 -33 -25 -64 -49 -111 -43
-116 156 -116 192 0 195 1 160 94 -39 103 -40 96 16 96 142 0 227 85 228 226
0 61 -4 77 -30 120 -33 52 -83 92 -127 101 -20 4 -28 12 -28 26 0 72 -64 166
-134 198 -49 22 -125 23 -181 3z m109 -275 c13 -84 57 -124 147 -136 50 -7 50
-19 -1 -26 -69 -9 -113 -38 -132 -88 -9 -24 -20 -57 -24 -74 -7 -30 -7 -30
-15 12 -18 97 -59 138 -150 150 -41 6 -54 23 -18 23 85 0 154 59 165 140 8 58
19 58 28 -1z"/>
<path d="M1085 2688 c-16 -28 -59 -82 -94 -120 l-64 -68 60 -63 c33 -34 75
-88 93 -120 17 -31 35 -57 39 -57 3 0 22 26 41 58 18 31 61 85 93 119 l60 63
-64 68 c-35 38 -77 92 -94 120 -16 28 -32 52 -35 52 -3 0 -18 -24 -35 -52z"/>
<path d="M3844 2713 c-47 -77 -74 -112 -123 -161 l-54 -54 41 -37 c50 -45 114
-128 131 -170 8 -17 17 -31 21 -31 5 0 25 27 45 61 21 33 62 87 92 120 l55 59
-55 60 c-31 33 -72 87 -93 120 -20 33 -38 60 -40 60 -2 0 -11 -12 -20 -27z"/>
<path d="M3104 1440 c-39 -21 -107 -53 -150 -70 -43 -18 -81 -33 -83 -35 -4
-4 79 -226 89 -237 3 -5 36 4 73 19 59 23 66 29 61 47 -9 30 -9 30 -53 12 -39
-15 -41 -15 -52 5 -12 24 -10 27 35 48 29 14 33 19 25 39 -8 22 -10 22 -45 7
-40 -17 -49 -14 -57 14 -3 15 4 22 35 35 34 13 40 19 35 38 -6 22 -5 22 8 4
13 -17 18 -18 41 -7 15 6 28 10 29 9 1 -2 21 -37 44 -78 60 -110 55 -104 80
-89 11 8 21 18 21 22 0 5 -20 45 -45 89 -25 44 -45 83 -45 87 0 3 11 13 24 21
21 13 23 18 13 37 l-12 22 -71 -39z"/>
<path d="M1816 1419 c-33 -26 -34 -63 -1 -111 14 -20 25 -44 25 -52 0 -26 -40
-18 -68 13 -24 28 -42 30 -70 6 -8 -7 33 -57 63 -75 55 -34 106 -26 130 21 17
31 10 60 -26 108 -12 16 -19 36 -16 45 8 19 43 10 62 -17 l15 -21 21 20 20 21
-36 31 c-42 38 -81 41 -119 11z"/>
<path d="M1961 1287 c-17 -50 -31 -102 -31 -113 0 -34 36 -70 83 -84 74 -20
97 1 144 132 l32 89 -26 10 c-32 12 -35 8 -64 -81 -25 -76 -43 -100 -69 -93
-41 11 -42 27 -11 123 l29 91 -25 10 c-13 5 -26 9 -28 9 -2 0 -17 -42 -34 -93z"/>
<path d="M2184 1181 l-20 -130 24 -6 c31 -8 42 1 42 33 0 56 17 58 44 5 25
-50 41 -63 77 -63 24 0 24 0 -11 60 l-30 51 30 25 c21 18 30 35 30 56 0 58
-25 77 -125 93 l-41 6 -20 -130z m119 47 c13 -20 -6 -48 -34 -48 -14 0 -19 7
-19 28 0 16 3 32 7 36 11 11 35 3 46 -16z"/>
<path d="M2722 1300 c-18 -4 -36 -10 -39 -14 -5 -5 43 -245 50 -253 2 -1 19 1
38 6 19 5 46 12 61 15 36 8 68 43 68 74 0 13 -12 36 -29 51 -22 21 -27 33 -24
58 9 59 -39 84 -125 63z m66 -64 c4 -19 -16 -39 -30 -30 -4 3 -8 16 -8 30 0
19 5 25 17 22 10 -2 19 -12 21 -22z m41 -94 c12 -22 3 -37 -26 -46 -18 -6 -24
-2 -29 20 -10 40 36 62 55 26z"/>
<path d="M2414 1267 c-2 -7 -3 -67 -2 -133 l3 -119 75 0 c73 0 75 1 75 25 0
23 -4 25 -47 28 -43 3 -48 5 -48 28 0 22 4 24 45 24 41 0 45 2 45 24 0 22 -5
25 -42 28 -38 3 -43 6 -43 28 0 23 4 25 48 28 42 3 47 5 47 28 0 23 -2 24 -75
24 -53 0 -77 -4 -81 -13z"/>
</g>
</svg>
